Coordinates
version=1
nRows=98
nColumns=6
inDegrees=yes

Units are S.I. units (second, meters, Newtons, ...)
If the header above contains a line with 'inDegrees', this indicates whether rotational values are in degrees (yes) or radians (no).

endheader
time	foot_tx	hip_flexion_r	knee_angle_r	ankle_angle_r	lumbar
     83.80000000	      0.24467749	     70.01131191	    -68.75061530	     -2.32092598	    -11.37093759
     83.81000000	      0.24465625	     70.04162439	    -68.73214185	     -2.33459214	    -11.33559696
     83.82000000	      0.24463204	     70.05024979	    -68.71116763	     -2.34694642	    -11.32355241
     83.83000000	      0.24459562	     70.11296004	    -68.69391738	     -2.36046198	    -11.24413076
     83.84000000	      0.24456675	     70.15276915	    -68.67430032	     -2.37327698	    -11.18869303
     83.85000000	      0.24454206	     70.19631014	    -68.65308976	     -2.38749822	    -11.12946922
     83.86000000	      0.24450474	     70.24408517	    -68.63567168	     -2.39844605	    -11.06269240
     83.87000000	      0.24447212	     70.29365927	    -68.61759703	     -2.41063145	    -10.99776009
     83.88000000	      0.24444468	     70.34261170	    -68.60074898	     -2.42229745	    -10.93359899
     83.89000000	      0.24442289	     70.38965620	    -68.58492223	     -2.43360393	    -10.87317142
     83.90000000	      0.24440086	     70.43404889	    -68.57115408	     -2.44356070	    -10.81843338
     83.91000000	      0.24438110	     70.47266482	    -68.55915758	     -2.45230840	    -10.77273091
     83.92000000	      0.24435718	     70.50674572	    -68.54966574	     -2.45908957	    -10.73512857
     83.93000000	      0.24431784	     70.51201215	    -68.54706731	     -2.45902665	    -10.73682973
     83.94000000	      0.24428997	     70.56193008	    -68.54174371	     -2.46464475	    -10.68495806
     83.95000000	      0.24425543	     70.56869758	    -68.54129021	     -2.46370134	    -10.68865404
     83.96000000	      0.24423107	     70.57736225	    -68.54208270	     -2.46295773	    -10.69183209
     83.97000000	      0.24421575	     70.58679824	    -68.54369465	     -2.46221176	    -10.69467877
     83.98000000	      0.24420196	     70.62613798	    -68.54794438	     -2.46198702	    -10.65908191
     83.99000000	      0.24420155	     70.63319089	    -68.54954366	     -2.46197320	    -10.66446809
     84.00000000	      0.24420447	     70.63971396	    -68.55164954	     -2.46169817	    -10.66919244
     84.01000000	      0.24421092	     70.64564080	    -68.55403120	     -2.46138519	    -10.67329687
     84.02000000	      0.24421620	     70.65073456	    -68.55668317	     -2.46078906	    -10.67646381
     84.03000000	      0.24421356	     70.65608243	    -68.56291919	     -2.45745480	    -10.67658653
     84.04000000	      0.24422512	     70.65948667	    -68.56450738	     -2.45784916	    -10.67865781
     84.05000000	      0.24423022	     70.66234357	    -68.56742329	     -2.45713992	    -10.68030390
     84.06000000	      0.24422516	     70.66467205	    -68.57297390	     -2.45450127	    -10.68200938
     84.07000000	      0.24421819	     70.66593880	    -68.57882775	     -2.45162698	    -10.68436130
     84.08000000	      0.24420440	     70.66368930	    -68.58712928	     -2.44640049	    -10.68876648
     84.09000000	      0.24420719	     70.64435821	    -68.59186159	     -2.44349489	    -10.71646741
     84.10000000	      0.24422177	     70.64630049	    -68.59499277	     -2.44430300	    -10.71958850
     84.11000000	      0.24421546	     70.63417604	    -68.60654886	     -2.43743889	    -10.73748516
     84.12000000	      0.24425596	     70.60750188	    -68.60376373	     -2.44115706	    -10.77707142
     84.13000000	      0.24425617	     70.60372599	    -68.61418809	     -2.43625422	    -10.78741278
     84.14000000	      0.24428059	     70.57242757	    -68.61692899	     -2.43494166	    -10.83154821
     84.15000000	      0.24430217	     70.57439639	    -68.62117556	     -2.43545557	    -10.83683376
     84.16000000	      0.24430388	     70.53117573	    -68.62944415	     -2.42822680	    -10.89667210
     84.17000000	      0.24432813	     70.53435190	    -68.63326427	     -2.42914999	    -10.90239283
     84.18000000	      0.24431948	     70.48410948	    -68.64497419	     -2.41890238	    -10.97374194
     84.19000000	      0.24434187	     70.46157414	    -68.64872775	     -2.41783792	    -11.01464182
     84.20000000	      0.24434535	     70.44494388	    -68.65865017	     -2.41239355	    -11.04885960
     84.21000000	      0.24437201	     70.45183784	    -68.66123884	     -2.41502745	    -11.05821755
     84.22000000	      0.24438678	     70.41150495	    -68.66538529	     -2.41203143	    -11.12674986
     84.23000000	      0.24439936	     70.42146436	    -68.66808570	     -2.41385137	    -11.13675998
     84.24000000	      0.24440985	     70.43208934	    -68.67049170	     -2.41580977	    -11.14819022
     84.25000000	      0.24441289	     70.44322122	    -68.67164620	     -2.41778186	    -11.16150915
     84.26000000	      0.24440832	     70.45559630	    -68.67109602	     -2.41989364	    -11.17569623
     84.27000000	      0.24439775	     70.46955734	    -68.66897145	     -2.42218592	    -11.19070873
     84.28000000	      0.24440570	     70.48119732	    -68.65936811	     -2.42900802	    -11.21141470
     84.29000000	      0.24437706	     70.49966240	    -68.65804496	     -2.42877539	    -11.22799402
     84.30000000	      0.24435670	     70.52041287	    -68.65536616	     -2.42929198	    -11.24624208
     84.31000000	      0.24435405	     70.54260148	    -68.64827617	     -2.43271841	    -11.26825597
     84.32000000	      0.24434125	     70.56967428	    -68.64687907	     -2.43196011	    -11.29106971
     84.33000000	      0.24434319	     70.60053734	    -68.64531689	     -2.43167303	    -11.31718987
     84.34000000	      0.24435737	     70.63569001	    -68.64411923	     -2.43149841	    -11.34731285
     84.35000000	      0.24438255	     70.67557764	    -68.64361306	     -2.43125763	    -11.38225267
     84.36000000	      0.24441915	     70.72047190	    -68.64390819	     -2.43104077	    -11.42319672
     84.37000000	      0.24446242	     70.72319544	    -68.64328716	     -2.42801908	    -11.52994813
     84.38000000	      0.24450510	     70.78348920	    -68.64503128	     -2.42841112	    -11.58269731
     84.39000000	      0.24455624	     70.78651793	    -68.64332989	     -2.42718422	    -11.72322546
     84.40000000	      0.24459857	     70.81832157	    -68.64143232	     -2.42848209	    -11.84862416
     84.41000000	      0.24464071	     70.84782396	    -68.63817787	     -2.43127282	    -11.99697880
     84.42000000	      0.24467455	     70.88044218	    -68.63216138	     -2.43615582	    -12.16444783
     84.43000000	      0.24470614	     70.91400425	    -68.62278135	     -2.44363462	    -12.35400611
     84.44000000	      0.24470932	     70.95279538	    -68.61511474	     -2.44946488	    -12.56297640
     84.45000000	      0.24470570	     70.99839754	    -68.60357804	     -2.45799173	    -12.79031560
     84.46000000	      0.24469421	     71.05123321	    -68.58802930	     -2.46896151	    -13.03681758
     84.47000000	      0.24466589	     71.11320002	    -68.56977967	     -2.48094531	    -13.30137250
     84.48000000	      0.24462612	     71.18639323	    -68.54917411	     -2.49389230	    -13.58083821
     84.49000000	      0.24457978	     71.26918111	    -68.52486206	     -2.50868574	    -13.87676763
     84.50000000	      0.24452563	     71.36276310	    -68.50043983	     -2.52323049	    -14.18639426
     84.51000000	      0.24448123	     71.46605365	    -68.47211235	     -2.54082714	    -14.51094517
     84.52000000	      0.24445099	     71.57813817	    -68.44001449	     -2.56171410	    -14.85256524
     84.53000000	      0.24444217	     71.70128043	    -68.40248164	     -2.58756652	    -15.21032524
     84.54000000	      0.24445174	     71.83544706	    -68.35864138	     -2.61883259	    -15.58684535
     84.55000000	      0.24446842	     71.98604678	    -68.31055868	     -2.65424327	    -15.97800033
     84.56000000	      0.24448733	     72.15372824	    -68.25751990	     -2.69378479	    -16.38571113
     84.57000000	      0.24450335	     72.34431210	    -68.20109052	     -2.73634751	    -16.80440775
     84.58000000	      0.24451415	     72.56140712	    -68.14261967	     -2.78067531	    -17.23044628
     84.59000000	      0.24451873	     72.80961906	    -68.08367487	     -2.82536671	    -17.65779655
     84.60000000	      0.24451378	     73.08829900	    -68.02672146	     -2.86749297	    -18.08531294
     84.61000000	      0.24449329	     73.39552406	    -67.97456449	     -2.90347206	    -18.51239671
     84.62000000	      0.24445225	     73.72893692	    -67.92863199	     -2.93085557	    -18.93953955
     84.63000000	      0.24439057	     74.08857285	    -67.88766368	     -2.94984469	    -19.36582013
     84.64000000	      0.24431132	     74.47745061	    -67.84967568	     -2.96169855	    -19.78726884
     84.65000000	      0.24422679	     74.89916939	    -67.80891707	     -2.97001398	    -20.19903650
     84.66000000	      0.24414187	     75.36436642	    -67.76217143	     -2.97695061	    -20.58843681
     84.67000000	      0.24405894	     75.85025002	    -67.70859946	     -2.98037528	    -20.98433147
     84.68000000	      0.24397603	     76.40128749	    -67.64990569	     -2.98279857	    -21.33504278
     84.69000000	      0.24389704	     76.99551696	    -67.58662875	     -2.98223136	    -21.66804937
     84.70000000	      0.24382365	     77.64254776	    -67.52100197	     -2.97805740	    -21.97103477
     84.71000000	      0.24375376	     78.34844011	    -67.45520882	     -2.96869321	    -22.23485041
     84.72000000	      0.24368654	     79.10926158	    -67.39172678	     -2.95176375	    -22.46006078
     84.73000000	      0.24362859	     79.92723554	    -67.32821977	     -2.92799134	    -22.63942778
     84.74000000	      0.24356842	     80.80159460	    -67.26799630	     -2.89368076	    -22.76851808
     84.75000000	      0.24352525	     81.73346821	    -67.20299640	     -2.85340518	    -22.84086013
     84.76000000	      0.24347580	     82.71986932	    -67.14008568	     -2.80074295	    -22.85488571
     84.77000000	      0.24343275	     83.75401284	    -67.07304375	     -2.73822514	    -22.81447645
